<?xml version="1.0" encoding="UTF-8" standalone="no"?>
<svg
   xmlns:dc="http://purl.org/dc/elements/1.1/"
   xmlns:cc="http://creativecommons.org/ns#"
   xmlns:rdf="http://www.w3.org/1999/02/22-rdf-syntax-ns#"
   xmlns:svg="http://www.w3.org/2000/svg"
   xmlns="http://www.w3.org/2000/svg"
   xmlns:sodipodi="http://sodipodi.sourceforge.net/DTD/sodipodi-0.dtd"
   xmlns:inkscape="http://www.inkscape.org/namespaces/inkscape"
   version="1.1"
   id="svg2"
   viewBox="0 0 744.09448819 1052.3622047"
   height="297mm"
   width="210mm"
   inkscape:version="0.91 r13725"
   sodipodi:docname="Logo v5c.svg">
  <sodipodi:namedview
     pagecolor="#ffffff"
     bordercolor="#666666"
     borderopacity="1"
     objecttolerance="10"
     gridtolerance="10"
     guidetolerance="10"
     inkscape:pageopacity="0"
     inkscape:pageshadow="2"
     inkscape:window-width="1920"
     inkscape:window-height="1018"
     id="namedview8318"
     showgrid="false"
     inkscape:zoom="1.5119854"
     inkscape:cx="485.68743"
     inkscape:cy="775.31782"
     inkscape:window-x="1358"
     inkscape:window-y="-8"
     inkscape:window-maximized="1"
     inkscape:current-layer="svg2" />
  <defs
     id="defs4" />
  <metadata
     id="metadata7">
    <rdf:RDF>
      <cc:Work
         rdf:about="">
        <dc:format>image/svg+xml</dc:format>
        <dc:type
           rdf:resource="http://purl.org/dc/dcmitype/StillImage" />
        <dc:title></dc:title>
      </cc:Work>
    </rdf:RDF>
  </metadata>
  <g
     style="display:inline"
     id="layer7">
    <path
       d="m 263.04373,297.87927 218.49599,0 0,188.79752 -218.49599,0 z m 7.77817,-91.92387 236.17366,0 0,185.26198 -236.17366,0 z m 307.59143,16.26344 63.63961,0 0,37.47666 -63.63961,0 z m -50.20459,22.62743 82.73149,0 0,45.25483 -82.73149,0 z m -53.74008,9.89949 105.35891,0 0,61.51829 -105.35891,0 z m -364.16001,183.84775 424.97116,0 0,48.79036 -424.97116,0 z m 0,-239.70919 543.05798,0 0,39.59798 -543.05798,0 z m 92.22942,-12.58772 289.5,0 0,311 -289.5,0 z"
       style="fill:#000000"
       id="rect7460" />
  </g>
  <g
     style="display:inline"
     id="layer3">
    <g
       id="g6854">
      <path
         d="m 220,377.36221 25,0 0,100 -25,0 z m 0,-150.00001 25,0 0,125 -25,0 z m -108.5,-28.99999 233.5,0 0,40 -233.5,0 z"
         style="fill:#550000"
         id="rect4662" />
      <path
         d="m 395,227.3622 25,0 0,25 -25,0 z m 25,25 25,0 0,25 -25,0 z m 25,25.00001 25,0 0,25 -25,0 z m 25,25 25,0 0,25 -25,0 z m 25,25 25,0 0,25 -25,0 z m -25,25 25,0 0,25 -25,0 z m -25,25 25,0 0,25 -25,0 z m -75,50 50,0 0,25 -50,0 z m 0,-75 25,0 0,125 -25,0 z m 50,50 25,0 0,25 -25,0 z"
         style="display:inline;fill:#ff0000"
         id="rect3346-6-1-3-1-8-2-4-8" />
      <path
         d="m 295,377.36221 25,0 0,25 -25,0 z m 25,25 25,0 0,25 -25,0 z m 75,-50 -25,0 0,-150 25,0 z m 3e-5,-100.00001 -50,0 0,-25 50,0 z M 345,277.36221 l -25,0 0,-25 25,0 z m -25,25 -25,0 0,-25 25,0 z m -25,75 -25,0 0,-75 25,0 z m 100,-25 -150,0 0,-25 150,0 z m -50,75 25,0 0,25 -25,0 z m -125,-75 25,0 0,25 -25,0 z m -25,25 25,0 0,25 -25,0 z m -25,25 25,0 0,25 -25,0 z m -25,25 25,0 0,25 -25,0 z m -25,25 25,0 0,25 -25,0 z"
         style="display:inline;fill:#800000"
         id="rect3346-6-1-3-1-8-5-8" />
      <path
         d="m 520,302.36221 25,0 0,25 -25,0 z m 25,-25 25,0 0,25 -25,0 z m 25,-25.00001 25,0 0,25 -25,0 z m 25,-50 25,0 0,50 -25,0 z m -100,1e-5 150,0 0,25 -150,0 z m -100,250 125,0 0,25 -125,0 z"
         style="display:inline;fill:#550000"
         id="rect3346-6-1-3-1-8-5-4-9-8" />
    </g>
  </g>
  <g
     style="display:inline"
     id="layer1">
    <g
       id="g6685">
      <g
         id="g6769">
        <path
           d="m 420,202.3622 50,0 0,50 -50,0 z m -25,-25 100,0 0,50 -100,0 z m 75,200.00001 25,0 0,50 -25,0 z m 25,-25 25,0 0,50 -25,0 z m 25,-25 25,0 0,50 -25,0 z m 25,-25 25,0 0,50 -25,0 z m 25,-25 25,0 0,50 -25,0 z m 25,-25.00001 25,0 0,50 -25,0 z m 25,-25 25,0 0,50 -25,0 z m -100,25 25,0 0,50 -25,0 z m -275,175.00001 100,0 0,50 -100,0 z m 75,25 50,0 0,25 -50,0 z m -25,-50 25,0 0,50 -25,0 z m -125,-50 50,0 0,25 -50,0 z m -25,25 50,0 0,25 -50,0 z m -50,50 50,0 0,25 -50,0 z m 25,-25 50,0 0,25 -50,0 z m 25,50 50,0 0,25 -50,0 z m 200,-275.00001 25,0 0,50 -25,0 z m 0,25.00001 25,0 0,25 -25,0 z m -25,75 50,0 0,25 -50,0 z m 25,-25.00001 25,0 0,75 -25,0 z m -25,25.00001 25,0 0,50 -25,0 z m -25,25 75,0 0,25 -75,0 z m 25,50 25,0 0,50 -25,0 z m 0,25 50,0 0,25 -50,0 z m 75,-100 50,0 0,25 -50,0 z m 0,100 50,0 0,25 -50,0 z m -100,-25 75,0 0,25 -75,0 z m 50,0 25,0 0,75 -25,0 z m 50,-50 75,0 0,25 -75,0 z m 0,50 75,0 0,25 -75,0 z m 0,-25 100,0 0,25 -100,0 z m 50,-100.00001 50,0 0,50 -50,0 z m 25,-2e-5 75,0 0,75 -75,0 z m -75,25.00003 25,0 0,175 -25,0 z m 25,25 25,0 0,125 -25,0 z m 100,-50.00001 50,0 0,50 -50,0 z m -50,50.00001 75,0 0,25 -75,0 z m 25,6e-5 25,0 0,50 -25,0 z m -25,49.99994 25,0 0,25 -25,0 z m -25,-25 25,0 0,75 -25,0 z m 25,-75.00001 125,0 0,25 -125,0 z m 0,-50 25,0 0,75 -25,0 z m 0,1e-5 200,0 0,25 -200,0 z m 175,0.25125 25,0 0,74.74874 -25,0 z m 0,24.74875 25,0 0,25 -25,0 z m -25,24.99999 50,0 0,25 -50,0 z m -25,25 50,0 0,25 -50,0 z m -25,25.00001 50,0 0,25 -50,0 z m -25,25 50,0 0,25 -50,0 z m -25,25 50,0 0,25 -50,0 z m -24.99997,25 50,0 0,25 -50,0 z m -25.00003,25 50,0 0,25 -50,0 z m -25,25 50,0 0,50 -50,0 z m -25,-200 25,0 0,50 -25,0 z m 0,225 125,0 0,25 -125,0 z m 100,0 25,0 0,75 -25,0 z m -275,-50 50,0 0,125 -50,0 z m 25,25 50,0 0,25 -50,0 z m 25,25 50,0 0,25 -50,0 z m -50,25 125,0 0,50 -125,0 z m 0,-225 50,0 0,75 -50,0 z m 0,-1e-5 75,0 0,50 -75,0 z m 0,0 100,0 0,25 -100,0 z m 0,0 25,0 0,100 -25,0 z m 150,-50 25,0 0,50 -25,0 z m -300,0 325,0 0,25 -325,0 z m 0,0 25,0 0,75 -25,0 z m 0,50 125,0 0,25 -125,0 z m 100,1e-5 25,0 0,150 -25,0 z m 50,125 25,0 0,150 -25,0 z m -75,0 25,0 0,50 -25,0 z m 175,125 200,0 0,25 -200,0 z m -200,-100 25,0 0,50 -25,0 z m -25,25 25,0 0,50 -25,0 z m 75,75.00019 75,0 0,25 -75,0 z m 0,-75.00019 25,0 0,100 -25,0 z m -25,25 50,0 0,50 -50,0 z m -25,25 75,0 0,50 -75,0 z m -50,25 75,0 0,25 -75,0 z m 0,-50.00015 25,0 0,75 -25,0 z"
           style="display:inline;fill:#000000"
           id="rect3346-6-2-57-1-0" />
      </g>
    </g>
  </g>
  <g
     style="display:inline"
     id="layer5">
    <path
       id="path4399-2-1"
       d="m 195.35024,377.01196 74.29953,-74.29904"
       style="display:inline;fill:none;fill-rule:evenodd;stroke:#000000;stroke-width:0.99063152px;stroke-linecap:butt;stroke-linejoin:miter;stroke-opacity:1" />
    <path
       id="path4399-2"
       d="m 195.35024,427.01173 74.29953,-74.29904"
       style="display:inline;fill:none;fill-rule:evenodd;stroke:#000000;stroke-width:0.99063152px;stroke-linecap:butt;stroke-linejoin:miter;stroke-opacity:1" />
    <path
       id="path4399-2-53-96"
       d="m 345.35024,377.01196 74.29954,-74.29902"
       style="display:inline;fill:none;fill-rule:evenodd;stroke:#000000;stroke-width:0.99063087px;stroke-linecap:butt;stroke-linejoin:miter;stroke-opacity:1" />
    <path
       id="path4399-2-53"
       d="M 370.35024,502.01172 444.64978,427.7127"
       style="display:inline;fill:none;fill-rule:evenodd;stroke:#000000;stroke-width:0.99063087px;stroke-linecap:butt;stroke-linejoin:miter;stroke-opacity:1" />
  </g>
  <g
     style="display:inline"
     id="layer4">
    <path
       transform="matrix(2.4885374,-2.1013319,3.860314,4.0836794,-1698.5839,-1103.3223)"
       d="m 136.07386,448.13945 -5.28279,3.40357 -0.30619,-6.27682 z m -2.55262,-0.68588 -5.28279,3.40357 -0.30619,-6.27682 z m 5.0788,-7.42657 0.31867,6.27853 -10.86741,0.53728 -0.31867,-6.27853 z m -0.30558,-6.27917 0.31867,6.27853 -10.86741,0.53729 -0.31867,-6.27854 z m -0.30557,-6.27917 0.31867,6.27853 -10.86741,0.53728 -0.31867,-6.27853 z m -0.30557,-6.27917 0.31867,6.27853 -10.86741,0.53728 -0.31867,-6.27853 z m 16.14888,-3.93416 0.31867,6.27853 -10.86741,0.53729 -0.31867,-6.27853 z m 10.86777,-0.52972 0.31868,6.27854 -10.86741,0.53728 -0.31868,-6.27853 z m 10.86778,-0.52971 0.31867,6.27853 -10.86741,0.53728 -0.31867,-6.27853 z m 10.86778,-0.52971 0.31867,6.27853 -10.86741,0.53728 -0.31867,-6.27853 z m -43.47111,2.11885 0.31868,6.27853 -10.86741,0.53729 -0.31868,-6.27853 z m -10.86778,0.52972 0.31867,6.27853 -10.86741,0.53729 -0.31867,-6.27854 z m -10.86778,0.52972 0.31867,6.27854 -10.86741,0.53728 -0.31867,-6.27853 z m -10.86777,0.52972 0.31867,6.27853 -10.86741,0.53729 -0.318672,-6.27854 z m -10.867787,0.52972 0.318672,6.27853 -10.867408,0.53728 -0.318672,-6.27853 z m -10.867774,0.52971 0.318672,6.27853 -10.867408,0.53728 -0.318672,-6.27853 z m 44.089001,10.44294 5.28279,-3.40357 0.30619,6.27682 z m 0.30557,6.27917 5.28279,-3.40357 0.30619,6.27682 z m 0.30558,6.27917 5.28279,-3.40357 0.30619,6.27682 z m 0.30556,6.27916 -5.28279,3.40357 -0.30619,-6.27682 z m -0.30557,-6.27917 -5.28279,3.40357 -0.30619,-6.27682 z m -0.30557,-6.27917 -5.28279,3.40357 -0.30619,-6.27682 z m -0.30558,-6.27917 -5.28279,3.40357 -0.30619,-6.27682 z m -0.30557,-6.27916 -5.28279,3.40357 -0.30619,-6.27682 z m -5.64255,-2.90347 5.58507,2.87575 -10.86375,0.52994 z m 43.52698,-2.09012 5.58507,2.87575 -10.86375,0.52995 z m -10.86778,0.52971 5.58507,2.87576 -10.86375,0.52994 z m -10.86778,0.52972 5.58508,2.87576 -10.86376,0.52994 z m -32.60333,1.58915 5.58507,2.87576 -10.86375,0.52994 z m -10.86778,0.52972 5.58508,2.87575 -10.863757,0.52994 z m -10.867776,0.52971 5.585074,2.87576 -10.863753,0.52994 z m -10.867777,0.52972 5.585073,2.87575 -10.863753,0.52995 z m 97.810013,-4.76745 -5.58508,-2.87576 10.86375,-0.52994 z m -10.86778,0.52971 -5.58508,-2.87575 10.86376,-0.52994 z m -10.86778,0.52972 -5.58507,-2.87576 10.86375,-0.52994 z m -10.86778,0.52972 -5.58507,-2.87576 10.86375,-0.52994 z m -10.86778,0.52971 -5.58507,-2.87575 10.86375,-0.52994 z m -10.86777,0.52972 -5.58508,-2.87576 10.86376,-0.52994 z m -10.86778,0.52972 -5.58507,-2.87576 10.86375,-0.52994 z m -10.86778,0.52971 -5.585073,-2.87575 10.863753,-0.52995 z m -10.867777,0.52972 -5.585073,-2.87576 10.863752,-0.52994 z m -10.867778,0.52971 -5.585073,-2.87575 10.863752,-0.52994 z"
       style="display:inline;fill:#800000"
       id="path5120-23-45-5-5-9" />
    <path
       id="path5120-23-45-5-5-9-5-10-5-3-5"
       style="display:inline;fill:#550000"
       d="m 535.9358,311.18862 -0.006,18.8128 -20.30929,-18.80462 z m -3.12598,3.48777 -25,-0.008 24.98911,-24.99246 z M 544.96988,277.36215 570,302.33204 545.03013,327.36217 519.99999,302.39229 Z m 25,-24.99993 25.03014,24.96987 -24.96987,25.03013 -25.03013,-24.96987 z M 594.96987,227.3622 620.00001,252.33207 595.03014,277.3622 570,252.39233 Z m 25.00001,-24.99999 25.03014,24.96987 -24.96987,25.03013 -25.03014,-24.96987 z m -99.96987,125.00001 24.99996,0.008 -24.98911,24.99246 z m 12.62719,-12.40002 -0.008,24.99997 -24.99247,-24.9891 z m -2.37723,2.11251 25.00002,0.008 -24.98911,24.99246 z m 64.75002,-64.71252 -25,-0.008 24.98912,-24.99247 z M 570,277.36221 l -24.99999,-0.008 24.98911,-24.99247 z m -25.00001,24.99999 -25,-0.008 24.98912,-24.99247 z m 75.00004,-74.99997 24.99997,0.008 -24.98912,24.99246 z m -25.00001,24.99999 24.99996,0.008 -24.98909,24.99244 z m -25.10922,24.88528 25,0.008 -24.9891,24.99245 z m -24.89081,25.1147 25,0.008 -24.98912,24.99246 z m -14.1,14.11278 -24.99996,-0.008 24.98911,-24.99247 z" />
    <path
       d="m 136.07386,448.13945 -5.28279,3.40357 -0.30619,-6.27682 z m 33.21723,10.92468 -5.58498,-2.87581 10.86375,-0.52994 z m 20.81325,-19.89982 1.11691,0.57521 -2.17274,0.10597 z m -50.3785,32.48279 -5.28288,3.40352 -0.30619,-6.27682 z m -2.32133,1.49643 -5.28288,3.40352 -0.30619,-6.27682 z m 26.40552,-17.02221 5.58498,2.87581 -10.86375,0.52995 z m -32.09108,14.21904 -0.31866,-6.27853 10.8674,-0.53728 0.31867,6.27852 z m -0.30558,-6.27917 -0.31867,-6.27853 10.86741,-0.53728 0.31869,6.27853 z m -0.30556,-6.27916 -0.31869,-6.27853 10.86741,-0.53729 0.31868,6.27853 z m -0.30558,-6.27918 -0.31867,-6.27853 10.86741,-0.53728 0.31866,6.27853 z m 5.2811,-3.40444 -0.31868,-6.27854 10.86741,-0.53728 0.31868,6.27853 z m 10.86778,-0.52972 -0.31868,-6.27853 10.86742,-0.53729 0.31867,6.27854 z m 10.86778,-0.52972 -0.31866,-6.27854 10.86741,-0.53728 0.31866,6.27853 z m 10.86778,-0.5297 -0.31868,-6.27854 10.8674,-0.53728 0.31869,6.27853 z m 10.86778,-0.52972 -0.31867,-6.27854 10.86741,-0.53728 0.31867,6.27853 z m -5.59342,-2.8782 5.58499,2.87582 -10.86376,0.52994 z m -10.86778,0.52972 5.58498,2.87582 -10.86375,0.52994 z m -10.86778,0.52972 5.58499,2.87581 -10.86376,0.52994 z m 2e-5,0 -5.58498,-2.87582 10.86375,-0.52994 z m 10.86776,-0.52972 -5.58498,-2.87582 10.86375,-0.52994 z m 21.73556,-1.05944 -5.58498,-2.87581 10.86375,-0.52994 z m -10.8579,0.5348 -5.58498,-2.87581 10.86375,-0.52994 z m -36.79425,27.59352 -5.28288,3.40352 -0.30619,-6.27682 z m -5.49084,-1.16063 1.92507,-0.23755 -1.87437,1.63992 z m 9.67187,-24.84882 5.58499,2.87582 -10.86376,0.52994 z m -4.97552,9.68362 -5.28288,3.40351 -0.3062,-6.27682 z m 0.30558,6.27916 -5.28289,3.40353 -0.30619,-6.27683 z m 0.30556,6.27917 -5.28288,3.40352 -0.30619,-6.27682 z m 0.30558,6.27917 -5.28288,3.40352 -0.30619,-6.27682 z m -0.30556,-6.27917 5.28288,-3.40351 0.3062,6.27682 z m -0.30558,-6.27917 5.28289,-3.40352 0.30618,6.27682 z m -0.30556,-6.27917 5.28288,-3.40351 0.30618,6.27682 z m -0.35705,-6.22966 5.28288,-3.40352 0.30619,6.27683 z m 33.26233,10.92072 -1.89063,-0.46113 3.28899,-0.86228 z m -5.58307,-2.87576 5.58499,2.87581 -10.86376,0.52995 z m -22.3995,-11.46487 -5.58498,-2.87581 10.86375,-0.52995 z"
       style="display:inline;fill:#ff0000"
       transform="matrix(-2.4885374,2.1013319,-3.860314,-4.0836794,2563.4189,1871.2962)"
       id="path5120-23-45-5-5-9-5-4-02-29-1-6" />
  </g>
  <g
     style="display:inline"
     id="layer6">
    <path
       id="path4437"
       d="m 369.7433,492.36216 0.0134,-74.99959"
       style="display:inline;fill:none;fill-rule:evenodd;stroke:#000000;stroke-width:0.4865959px;stroke-linecap:butt;stroke-linejoin:miter;stroke-opacity:1" />
    <path
       id="path4437-1"
       d="m 395.2433,262.36216 0.0134,-74.99959"
       style="display:inline;fill:none;fill-rule:evenodd;stroke:#000000;stroke-width:0.4865981px;stroke-linecap:butt;stroke-linejoin:miter;stroke-opacity:1" />
    <path
       id="path4399-2-53-9"
       d="m 520.06743,327.30304 -12.51204,-12.5119"
       style="display:inline;fill:none;fill-rule:evenodd;stroke:#000000;stroke-width:0.16682211px;stroke-linecap:butt;stroke-linejoin:miter;stroke-opacity:1" />
    <path
       id="path4437-3"
       d="m 520.06112,352.64096 0.003,-25.39581"
       style="display:inline;fill:none;fill-rule:evenodd;stroke:#000000;stroke-width:0.122239px;stroke-linecap:butt;stroke-linejoin:miter;stroke-opacity:1" />
  </g>
</svg>
